PathFileType	4	(X/Y/Z)	OpenSim_Sub02_EMGBaseline_Magnet.trc
DataRate	CameraRate	NumFrames	NumMarkers	Units	OrigDataRate	OrigDataStartFrame	OrigNumFrames
100	100	30	8	m	100	3364	6727
Frame#	Time	torso_imu_offset_imu	pelvis_imu_offset_imu	tibia_r_imu_offset_imu	femur_r_imu_offset_imu	tibia_l_imu_offset_imu	femur_l_imu_offset_imu	toes_r_imu_offset_imu	toes_l_imu_offset_imu
				X1	Y1	Z1	X2	Y2	Z2	X3	Y3	Z3	X4	Y4	Z4	X5	Y5	Z5	X6	Y6	Z6	X7	Y7	Z7	X8		Y8	Z8	

3364	33.63000000	-0.92865863	-0.14431492	-0.04925753	-0.65864654	0.04585816	-0.64171474	-0.02123749	-0.75730223	-0.32294430	-0.74587140	-0.36211117	0.17146612	-0.72277279	0.33854148	0.14094198	-0.68850778	0.32089073	0.33424394	-0.69768833	-0.48727898	0.19338115	-0.60995817	-0.17509515	-0.49846509
3365	33.64000000	-0.92992814	-0.14492016	-0.05164040	-0.65965282	0.05061799	-0.64059593	-0.00891443	-0.75451685	-0.33191598	-0.75653359	-0.34929207	0.15497459	-0.71795665	0.35196259	0.13497284	-0.68303318	0.32837360	0.34073748	-0.66847681	-0.49896221	0.24242519	-0.60859306	-0.17914531	-0.50100009
3366	33.65000000	-0.93298992	-0.14465746	-0.05445425	-0.65803244	0.05663351	-0.64065816	0.00214783	-0.75075612	-0.33959505	-0.76482850	-0.33715755	0.13664403	-0.71127910	0.36316591	0.12775966	-0.67726050	0.33482224	0.34553013	-0.65068217	-0.51616832	0.27448022	-0.60856171	-0.18177900	-0.49844930
3367	33.66000000	-0.93177041	-0.15273165	-0.05339048	-0.65172856	0.05851208	-0.64226004	0.01420960	-0.74337628	-0.34873719	-0.77353792	-0.32331760	0.12147805	-0.71271518	0.37057576	0.12611353	-0.67488108	0.34109668	0.35313198	-0.62033349	-0.52440726	0.30088817	-0.61002172	-0.17955218	-0.50089970
3368	33.67000000	-0.93373954	-0.14956708	-0.04689594	-0.65515732	0.06530516	-0.64259467	0.02130666	-0.73939249	-0.35157781	-0.78310881	-0.31021356	0.10721040	-0.71373916	0.37615067	0.12352360	-0.67100504	0.34195904	0.35735870	-0.58444548	-0.53512962	0.32888259	-0.61028529	-0.17319291	-0.50658966
3369	33.68000000	-0.93281917	-0.14966578	-0.04967649	-0.66032028	0.07311902	-0.64109053	0.02400765	-0.73017588	-0.36830294	-0.78836158	-0.28830643	0.09302011	-0.70851154	0.37939919	0.13571334	-0.66300950	0.34679055	0.36046786	-0.55259623	-0.54970424	0.35501823	-0.60844198	-0.17668704	-0.50707467
3370	33.69000000	-0.92790992	-0.15911856	-0.04953459	-0.65552655	0.07825439	-0.64219484	0.02395835	-0.72195538	-0.38520120	-0.80004685	-0.27344024	0.08482616	-0.70316017	0.38087807	0.13889081	-0.66169848	0.35269452	0.37133386	-0.51220648	-0.56414891	0.38034725	-0.60978467	-0.18087866	-0.50728654
3371	33.70000000	-0.92966827	-0.15611999	-0.05284541	-0.65311878	0.08233881	-0.64016597	0.01971582	-0.71354662	-0.39472653	-0.80551925	-0.26151949	0.07207013	-0.70360977	0.38572277	0.14044743	-0.66166135	0.35665861	0.37596857	-0.47346984	-0.59491613	0.37569688	-0.61163073	-0.17902068	-0.50625918
3372	33.71000000	-0.93325023	-0.15463348	-0.05271491	-0.65567334	0.08701950	-0.64220316	0.00966676	-0.70486413	-0.41049670	-0.80496352	-0.24835268	0.06851458	-0.69986936	0.39095749	0.15078960	-0.65616323	0.36126527	0.37268660	-0.44093153	-0.62186132	0.35590772	-0.60894555	-0.17649400	-0.51098074
3373	33.72000000	-0.92802991	-0.15875671	-0.04992607	-0.65384598	0.09598093	-0.64328666	0.00344626	-0.69773959	-0.42568967	-0.81190540	-0.23209818	0.06396742	-0.69561217	0.39813203	0.15043716	-0.65359821	0.35754918	0.37709117	-0.41933017	-0.63706096	0.34126697	-0.61359583	-0.17610058	-0.51124984
3374	33.73000000	-0.92744548	-0.16148206	-0.04790532	-0.65423685	0.09781178	-0.63746395	-0.00715604	-0.69097613	-0.43667198	-0.81798937	-0.21830534	0.05345186	-0.69102098	0.40347640	0.14647964	-0.64836018	0.35627263	0.38268299	-0.41922265	-0.63861084	0.32803752	-0.61702813	-0.18047557	-0.50514676
3375	33.74000000	-0.92841240	-0.15811680	-0.04556179	-0.65526324	0.10118158	-0.63433952	-0.01580758	-0.68804563	-0.43947016	-0.81961113	-0.20941034	0.05080537	-0.68831318	0.41530024	0.14078204	-0.64538582	0.35905316	0.38877725	-0.43362535	-0.62212504	0.31353322	-0.61720428	-0.18176891	-0.50414410
3376	33.75000000	-0.93144553	-0.15701036	-0.04377439	-0.65812043	0.11156802	-0.64039333	-0.02858264	-0.68004121	-0.44769237	-0.82208623	-0.19500130	0.04825676	-0.68509081	0.42036828	0.13814095	-0.64314168	0.36184047	0.38447314	-0.45757383	-0.60433538	0.29468961	-0.61981148	-0.17853693	-0.50699570
3377	33.76000000	-0.93042959	-0.15848212	-0.03980802	-0.65970393	0.11532883	-0.63932392	-0.04573575	-0.66420728	-0.46785109	-0.83253657	-0.18200209	0.04373394	-0.68143334	0.43017364	0.13148480	-0.63522747	0.36799183	0.38366470	-0.48662894	-0.58403871	0.26908996	-0.62306240	-0.17811849	-0.50934646
3378	33.77000000	-0.92489961	-0.15974330	-0.03820379	-0.65762500	0.12270539	-0.63174973	-0.06014135	-0.65617056	-0.47951887	-0.83177849	-0.17516358	0.04124296	-0.67410796	0.44591353	0.12467872	-0.63198982	0.37395634	0.38360208	-0.51040103	-0.56241005	0.23850793	-0.62795953	-0.17686012	-0.50352983
3379	33.78000000	-0.92398748	-0.15954594	-0.03418456	-0.66032883	0.13365710	-0.63247440	-0.08195322	-0.65404300	-0.48168828	-0.83427711	-0.16418770	0.03211010	-0.67099282	0.44953361	0.12092905	-0.63454275	0.38404818	0.37620600	-0.53969932	-0.54257197	0.21047145	-0.63166984	-0.17669714	-0.50595171
3380	33.79000000	-0.92660548	-0.15907419	-0.03291384	-0.65925042	0.14466822	-0.63153416	-0.10649216	-0.64361181	-0.48404774	-0.83993096	-0.15319263	0.02895566	-0.67152115	0.45419402	0.11322183	-0.62753693	0.39554645	0.37341443	-0.56264456	-0.52932583	0.18132414	-0.63213422	-0.17863793	-0.50040244
3381	33.80000000	-0.92943711	-0.15432067	-0.03640108	-0.65670935	0.15186651	-0.62916882	-0.13145265	-0.63976400	-0.47991850	-0.84057318	-0.14641165	0.02741952	-0.66504645	0.46626367	0.10651015	-0.62410689	0.39710814	0.37861205	-0.58142780	-0.51712697	0.14794097	-0.63373729	-0.17680489	-0.50205241
3382	33.81000000	-0.92876869	-0.15635226	-0.03623595	-0.65705792	0.15628098	-0.62742557	-0.15129824	-0.64135717	-0.47585613	-0.84025619	-0.13344577	0.02042199	-0.65999104	0.47759556	0.09693695	-0.62612739	0.40103112	0.37813088	-0.59718072	-0.50690279	0.10893210	-0.63317698	-0.17615450	-0.49932340
3383	33.82000000	-0.92848900	-0.15874930	-0.03340925	-0.65872322	0.16371232	-0.62431378	-0.17357263	-0.63730644	-0.46934900	-0.84338642	-0.12550113	0.02169113	-0.65540702	0.47815022	0.09262704	-0.62031542	0.40999240	0.37443107	-0.60986781	-0.50610588	0.06669063	-0.63439503	-0.17399809	-0.48780684
3384	33.83000000	-0.92984655	-0.15909142	-0.03181869	-0.65916094	0.16686685	-0.62690593	-0.20378812	-0.64132494	-0.45183214	-0.85141589	-0.12019558	0.01998174	-0.65252312	0.48715268	0.09115101	-0.61822679	0.41401779	0.37719835	-0.61880466	-0.50529756	0.02493750	-0.63762264	-0.17750701	-0.49210786
3385	33.84000000	-0.93095143	-0.16243577	-0.03398686	-0.65626314	0.17345952	-0.62657775	-0.22773690	-0.64849769	-0.42791343	-0.84677604	-0.11072769	0.01676028	-0.64932699	0.49660869	0.08390655	-0.61994317	0.41556605	0.37501627	-0.62704180	-0.49559314	-0.01605249	-0.64302604	-0.17746712	-0.48306349
3386	33.85000000	-0.93082249	-0.16080251	-0.03212248	-0.65648925	0.18107369	-0.62703709	-0.25196514	-0.65283568	-0.39993162	-0.84894446	-0.09873092	0.01652378	-0.64665581	0.50239379	0.07892954	-0.61330476	0.41938424	0.37548480	-0.62830977	-0.49453724	-0.05493778	-0.64320908	-0.17506339	-0.48500307
3387	33.86000000	-0.93023337	-0.15794945	-0.02517533	-0.65253161	0.18744960	-0.62696154	-0.28182791	-0.66011022	-0.37598733	-0.85238861	-0.09576100	0.01107735	-0.64191966	0.50992913	0.07800718	-0.60725877	0.42276599	0.38293314	-0.62851899	-0.49427601	-0.09747937	-0.63798864	-0.17950030	-0.49205625
3388	33.87000000	-0.92679590	-0.15887818	-0.03093334	-0.65089506	0.19211166	-0.62787477	-0.31911846	-0.65676670	-0.35158181	-0.84834395	-0.09345271	0.01225669	-0.63817504	0.51300531	0.07736500	-0.60667902	0.42586779	0.38343202	-0.63352400	-0.48777198	-0.14480522	-0.64016299	-0.18191589	-0.48524969
3389	33.88000000	-0.92904865	-0.16363121	-0.03145094	-0.65605878	0.19177687	-0.63232202	-0.35212951	-0.64455710	-0.33438430	-0.85051757	-0.08651992	0.00291637	-0.63103430	0.52090549	0.07930046	-0.60121789	0.42921435	0.38112852	-0.62385512	-0.48233931	-0.18679474	-0.64147692	-0.18139788	-0.48152762
3390	33.89000000	-0.92832976	-0.16114736	-0.02923740	-0.65376507	0.19632962	-0.62652641	-0.38619465	-0.62898788	-0.32281324	-0.85261102	-0.08640812	-0.00106507	-0.62534600	0.53209424	0.07421578	-0.59910581	0.43247169	0.38490053	-0.61672452	-0.46436916	-0.22910871	-0.64002760	-0.18255209	-0.48454508
3391	33.90000000	-0.93014244	-0.16178298	-0.02490796	-0.64651592	0.19645979	-0.62707284	-0.42096566	-0.61094461	-0.31567599	-0.85500437	-0.08002574	0.00351027	-0.62395945	0.53739357	0.06225380	-0.60056514	0.43583850	0.39134262	-0.61390016	-0.44997706	-0.26853406	-0.63749307	-0.18409878	-0.48800607
3392	33.91000000	-0.92965236	-0.16239535	-0.02576464	-0.64844848	0.19874033	-0.63043861	-0.44471559	-0.59343241	-0.31258392	-0.85621726	-0.08256467	-0.00015775	-0.61450209	0.54565799	0.06248165	-0.59589352	0.43797467	0.39311237	-0.60858372	-0.43103324	-0.29969057	-0.63547150	-0.18209793	-0.48292288
3393	33.92000000	-0.92937313	-0.16523026	-0.02611812	-0.64638042	0.20169388	-0.62988796	-0.47162021	-0.56747938	-0.31631222	-0.85461783	-0.08312445	-0.00217777	-0.60928408	0.55289197	0.06239271	-0.58705879	0.44019370	0.38587717	-0.60462672	-0.41011772	-0.32512479	-0.63287691	-0.18302886	-0.48096514
